<mxfile host="app.diagrams.net" modified="2022-03-04T08:51:53.114Z" agent="5.0 (Windows NT 10.0; Win64; x64) AppleWebKit/537.36 (KHTML, like Gecko) Chrome/98.0.4758.102 Safari/537.36" etag="MJWYGQV97GeWTtTVrPGd" version="16.5.6" type="github">
  <diagram id="BNrBwIR3xgm_0IoBfb6E" name="Page-1">
    <mxGraphModel dx="897" dy="1626" grid="1" gridSize="10" guides="1" tooltips="1" connect="1" arrows="1" fold="1" page="1" pageScale="1" pageWidth="827" pageHeight="1169" math="0" shadow="0">
      <root>
        <mxCell id="0" />
        <mxCell id="1" parent="0" />
        <mxCell id="jd_FnD_xRmlbwQwrYEqY-1" value="&lt;font color=&quot;#004c99&quot; size=&quot;1&quot;&gt;&lt;b style=&quot;font-size: 14px ; line-height: 80%&quot;&gt;Azure&lt;/b&gt;&lt;/font&gt;" style="ellipse;shape=cloud;whiteSpace=wrap;html=1;verticalAlign=bottom;fillColor=#dae8fc;strokeColor=#6c8ebf;rotation=0;" parent="1" vertex="1">
          <mxGeometry x="55.15" y="29.67" width="364.85" height="369.82" as="geometry" />
        </mxCell>
        <mxCell id="jd_FnD_xRmlbwQwrYEqY-2" style="edgeStyle=orthogonalEdgeStyle;curved=1;orthogonalLoop=1;jettySize=auto;html=1;entryX=0;entryY=0.5;entryDx=0;entryDy=0;fillColor=#0050ef;strokeWidth=2;dashed=1;exitX=0.51;exitY=0;exitDx=0;exitDy=0;exitPerimeter=0;strokeColor=#004C99;" parent="1" source="jd_FnD_xRmlbwQwrYEqY-3" target="jd_FnD_xRmlbwQwrYEqY-16" edge="1">
          <mxGeometry relative="1" as="geometry">
            <Array as="points">
              <mxPoint x="244" y="-55" />
            </Array>
          </mxGeometry>
        </mxCell>
        <mxCell id="jd_FnD_xRmlbwQwrYEqY-3" value="&lt;b&gt;&lt;font color=&quot;#004c99&quot;&gt;Calyx Azure &lt;br&gt;Active Directory&lt;/font&gt;&lt;/b&gt;" style="verticalLabelPosition=middle;html=1;verticalAlign=middle;align=right;strokeColor=none;fillColor=#00BEF2;shape=mxgraph.azure.azure_active_directory;labelPosition=left;" parent="1" vertex="1">
          <mxGeometry x="220" y="120" width="47.5" height="50" as="geometry" />
        </mxCell>
        <mxCell id="jd_FnD_xRmlbwQwrYEqY-4" value="" style="ellipse;whiteSpace=wrap;html=1;" parent="1" vertex="1">
          <mxGeometry x="600" y="112.5" width="170" height="165" as="geometry" />
        </mxCell>
        <mxCell id="jd_FnD_xRmlbwQwrYEqY-5" style="edgeStyle=orthogonalEdgeStyle;orthogonalLoop=1;jettySize=auto;html=1;exitX=0.25;exitY=0;exitDx=0;exitDy=0;entryX=1;entryY=0.58;entryDx=0;entryDy=0;entryPerimeter=0;strokeWidth=2;curved=1;strokeColor=#004C99;" parent="1" source="jd_FnD_xRmlbwQwrYEqY-8" target="jd_FnD_xRmlbwQwrYEqY-3" edge="1">
          <mxGeometry relative="1" as="geometry" />
        </mxCell>
        <mxCell id="jd_FnD_xRmlbwQwrYEqY-6" style="edgeStyle=orthogonalEdgeStyle;curved=1;orthogonalLoop=1;jettySize=auto;html=1;strokeWidth=2;entryX=0.75;entryY=0;entryDx=0;entryDy=0;strokeColor=#004C99;" parent="1" source="jd_FnD_xRmlbwQwrYEqY-8" target="jd_FnD_xRmlbwQwrYEqY-10" edge="1">
          <mxGeometry relative="1" as="geometry">
            <mxPoint x="420" y="220" as="targetPoint" />
          </mxGeometry>
        </mxCell>
        <mxCell id="jd_FnD_xRmlbwQwrYEqY-7" style="orthogonalLoop=1;jettySize=auto;html=1;entryX=0.592;entryY=1.02;entryDx=0;entryDy=0;entryPerimeter=0;fontColor=#004C99;strokeWidth=2;strokeColor=#004C99;" parent="1" source="jd_FnD_xRmlbwQwrYEqY-8" target="jd_FnD_xRmlbwQwrYEqY-16" edge="1">
          <mxGeometry relative="1" as="geometry" />
        </mxCell>
        <mxCell id="jd_FnD_xRmlbwQwrYEqY-8" value="Browser" style="rounded=1;whiteSpace=wrap;html=1;strokeColor=#3399FF;strokeWidth=2;" parent="1" vertex="1">
          <mxGeometry x="640" y="195" width="70" height="30" as="geometry" />
        </mxCell>
        <mxCell id="jd_FnD_xRmlbwQwrYEqY-9" value="" style="group" parent="1" vertex="1" connectable="0">
          <mxGeometry x="170" y="230" width="160" height="85" as="geometry" />
        </mxCell>
        <mxCell id="jd_FnD_xRmlbwQwrYEqY-10" value="" style="rounded=0;whiteSpace=wrap;html=1;strokeWidth=1;verticalAlign=bottom;" parent="jd_FnD_xRmlbwQwrYEqY-9" vertex="1">
          <mxGeometry width="160" height="85" as="geometry" />
        </mxCell>
        <mxCell id="jd_FnD_xRmlbwQwrYEqY-11" value="IRT" style="rounded=1;whiteSpace=wrap;html=1;strokeColor=#d6b656;strokeWidth=2;fillColor=#fff2cc;" parent="jd_FnD_xRmlbwQwrYEqY-9" vertex="1">
          <mxGeometry x="88.47058823529412" y="46.36363636363637" width="65.88235294117646" height="30.909090909090914" as="geometry" />
        </mxCell>
        <mxCell id="jd_FnD_xRmlbwQwrYEqY-12" value="MI" style="rounded=1;whiteSpace=wrap;html=1;strokeColor=#d79b00;strokeWidth=2;fillColor=#ffe6cc;" parent="jd_FnD_xRmlbwQwrYEqY-9" vertex="1">
          <mxGeometry x="13.176470588235293" y="46.36363636363637" width="65.88235294117646" height="30.909090909090914" as="geometry" />
        </mxCell>
        <mxCell id="jd_FnD_xRmlbwQwrYEqY-13" value="CTMS" style="rounded=1;whiteSpace=wrap;html=1;strokeColor=#6c8ebf;strokeWidth=2;fillColor=#dae8fc;" parent="jd_FnD_xRmlbwQwrYEqY-9" vertex="1">
          <mxGeometry x="13.176470588235293" y="7.727272727272728" width="65.88235294117646" height="30.909090909090914" as="geometry" />
        </mxCell>
        <mxCell id="jd_FnD_xRmlbwQwrYEqY-14" value="EDC" style="rounded=1;whiteSpace=wrap;html=1;strokeColor=#3399FF;strokeWidth=2;" parent="jd_FnD_xRmlbwQwrYEqY-9" vertex="1">
          <mxGeometry x="88.47058823529412" y="7.727272727272728" width="65.88235294117646" height="30.909090909090914" as="geometry" />
        </mxCell>
        <mxCell id="jd_FnD_xRmlbwQwrYEqY-15" value="" style="group" parent="1" vertex="1" connectable="0">
          <mxGeometry x="510" y="-140" width="260" height="170" as="geometry" />
        </mxCell>
        <mxCell id="jd_FnD_xRmlbwQwrYEqY-16" value="" style="ellipse;whiteSpace=wrap;html=1;strokeColor=#3399FF;strokeWidth=2;verticalAlign=bottom;" parent="jd_FnD_xRmlbwQwrYEqY-15" vertex="1">
          <mxGeometry width="260" height="170" as="geometry" />
        </mxCell>
        <mxCell id="jd_FnD_xRmlbwQwrYEqY-17" value="SAML" style="triangle;whiteSpace=wrap;html=1;strokeColor=#3399FF;strokeWidth=2;verticalAlign=bottom;fontStyle=4;rotation=0;textDirection=ltr;direction=north;" parent="jd_FnD_xRmlbwQwrYEqY-15" vertex="1">
          <mxGeometry x="160" y="50" width="80" height="60" as="geometry" />
        </mxCell>
        <mxCell id="jd_FnD_xRmlbwQwrYEqY-18" value="Gmail" style="triangle;whiteSpace=wrap;html=1;strokeColor=#3399FF;strokeWidth=2;verticalAlign=bottom;fontStyle=4;rotation=0;textDirection=ltr;direction=north;" parent="jd_FnD_xRmlbwQwrYEqY-15" vertex="1">
          <mxGeometry x="100" y="10" width="80" height="60" as="geometry" />
        </mxCell>
        <mxCell id="jd_FnD_xRmlbwQwrYEqY-19" value="Identity &lt;br&gt;Provider (ADFS)" style="triangle;whiteSpace=wrap;html=1;strokeColor=#3399FF;strokeWidth=2;verticalAlign=bottom;fontStyle=4;rotation=0;textDirection=ltr;direction=north;" parent="jd_FnD_xRmlbwQwrYEqY-15" vertex="1">
          <mxGeometry x="80" y="80" width="100" height="70" as="geometry" />
        </mxCell>
        <mxCell id="jd_FnD_xRmlbwQwrYEqY-20" value="Customer &lt;br&gt;Azure AD" style="triangle;whiteSpace=wrap;html=1;strokeColor=#3399FF;strokeWidth=2;verticalAlign=bottom;fontStyle=4;rotation=0;textDirection=ltr;direction=north;" parent="jd_FnD_xRmlbwQwrYEqY-15" vertex="1">
          <mxGeometry x="10" y="20" width="90" height="70" as="geometry" />
        </mxCell>
        <mxCell id="jd_FnD_xRmlbwQwrYEqY-21" value="Authenticates &lt;br&gt;and Get Token" style="text;html=1;align=center;verticalAlign=middle;resizable=0;points=[];autosize=1;strokeColor=none;fontStyle=1;fontColor=#004C99;" parent="1" vertex="1">
          <mxGeometry x="690" y="70" width="100" height="30" as="geometry" />
        </mxCell>
        <mxCell id="jd_FnD_xRmlbwQwrYEqY-22" style="edgeStyle=orthogonalEdgeStyle;curved=1;orthogonalLoop=1;jettySize=auto;html=1;entryX=0.51;entryY=1;entryDx=0;entryDy=0;entryPerimeter=0;strokeWidth=2;dashed=1;fillColor=#0050ef;strokeColor=#004C99;" parent="1" target="jd_FnD_xRmlbwQwrYEqY-3" edge="1">
          <mxGeometry relative="1" as="geometry">
            <mxPoint x="244" y="229" as="sourcePoint" />
            <Array as="points">
              <mxPoint x="240" y="229" />
              <mxPoint x="240" y="190" />
              <mxPoint x="244" y="190" />
            </Array>
          </mxGeometry>
        </mxCell>
        <mxCell id="jd_FnD_xRmlbwQwrYEqY-23" value="Presents Authentication token&amp;nbsp;&lt;br&gt;and Get claim Token" style="text;html=1;align=center;verticalAlign=middle;resizable=0;points=[];autosize=1;strokeColor=none;fontStyle=1;fontColor=#004C99;rotation=5;" parent="1" vertex="1">
          <mxGeometry x="414" y="120" width="190" height="30" as="geometry" />
        </mxCell>
        <mxCell id="jd_FnD_xRmlbwQwrYEqY-24" value="Presents authentication &lt;br&gt;and claim Token" style="text;html=1;align=center;verticalAlign=middle;resizable=0;points=[];autosize=1;strokeColor=none;fontStyle=1;fontColor=#004C99;" parent="1" vertex="1">
          <mxGeometry x="421" y="180" width="150" height="30" as="geometry" />
        </mxCell>
        <mxCell id="jd_FnD_xRmlbwQwrYEqY-25" value="Trust&lt;br&gt;Add B2B users" style="text;html=1;align=center;verticalAlign=middle;resizable=0;points=[];autosize=1;strokeColor=none;fontStyle=1;fontColor=#004C99;rotation=-20;" parent="1" vertex="1">
          <mxGeometry x="290" y="-70" width="100" height="30" as="geometry" />
        </mxCell>
        <mxCell id="jd_FnD_xRmlbwQwrYEqY-26" value="Trust" style="text;html=1;align=center;verticalAlign=middle;resizable=0;points=[];autosize=1;strokeColor=none;fontStyle=1;fontColor=#004C99;" parent="1" vertex="1">
          <mxGeometry x="190" y="190" width="40" height="20" as="geometry" />
        </mxCell>
        <mxCell id="jd_FnD_xRmlbwQwrYEqY-27" value="" style="verticalLabelPosition=bottom;html=1;verticalAlign=top;align=center;strokeColor=none;fillColor=#00BEF2;shape=mxgraph.azure.user;fontColor=#004C99;" parent="1" vertex="1">
          <mxGeometry x="710" y="195" width="30" height="30" as="geometry" />
        </mxCell>
        <mxCell id="jd_FnD_xRmlbwQwrYEqY-28" value="3" style="ellipse;whiteSpace=wrap;html=1;aspect=fixed;strokeColor=#000000;strokeWidth=1;verticalAlign=bottom;fillColor=#004C99;fontColor=#FFFFFF;fontSize=12;fontStyle=1" parent="1" vertex="1">
          <mxGeometry x="675" y="75" width="20" height="20" as="geometry" />
        </mxCell>
        <mxCell id="jd_FnD_xRmlbwQwrYEqY-29" value="1" style="ellipse;whiteSpace=wrap;html=1;aspect=fixed;strokeColor=#000000;strokeWidth=1;verticalAlign=bottom;fillColor=#004C99;fontColor=#FFFFFF;fontSize=12;fontStyle=1" parent="1" vertex="1">
          <mxGeometry x="280" y="-50" width="20" height="20" as="geometry" />
        </mxCell>
        <mxCell id="jd_FnD_xRmlbwQwrYEqY-30" value="2" style="ellipse;whiteSpace=wrap;html=1;aspect=fixed;strokeColor=#000000;strokeWidth=1;verticalAlign=bottom;fillColor=#004C99;fontColor=#FFFFFF;fontSize=12;fontStyle=1" parent="1" vertex="1">
          <mxGeometry x="170" y="190" width="20" height="20" as="geometry" />
        </mxCell>
        <mxCell id="jd_FnD_xRmlbwQwrYEqY-31" value="4" style="ellipse;whiteSpace=wrap;html=1;aspect=fixed;strokeColor=#000000;strokeWidth=1;verticalAlign=bottom;fillColor=#004C99;fontColor=#FFFFFF;fontSize=12;fontStyle=1" parent="1" vertex="1">
          <mxGeometry x="394" y="120" width="20" height="20" as="geometry" />
        </mxCell>
        <mxCell id="jd_FnD_xRmlbwQwrYEqY-32" value="5" style="ellipse;whiteSpace=wrap;html=1;aspect=fixed;strokeColor=#000000;strokeWidth=1;verticalAlign=bottom;fillColor=#004C99;fontColor=#FFFFFF;fontSize=12;fontStyle=1" parent="1" vertex="1">
          <mxGeometry x="400" y="185" width="20" height="20" as="geometry" />
        </mxCell>
      </root>
    </mxGraphModel>
  </diagram>
</mxfile>
